# xmcd
#
# Track frame offsets:
#	150
#	18699
#	46039
#	64458
#	77176
#	98625
#	107022
#	130707
#	144445
#	161441
#	169743
#	201202
#	215105
#	236277
#
# Disc length: 3559 seconds
#
# Revision: 1
# Processed by: cddbd v1.4PL0 Copyright (c) Steve Scherf et al.
# Submitted via: audiograbber 1.81.02
#
DISCID=bd0de50e
DTITLE=Mike Bloomfield - Knockin' Myself Out
DYEAR=2002
DGENRE=Blues
TTITLE0=Knockin Myself Out
TTITLE1=Sloppy Drunk
TTITLE2=You Tool My Money
TTITLE3=Peepin' and a Moanin' Blues
TTITLE4=The Gospel Truth
TTITLE5=Lights Out
TTITLE6=Orphan's Blues
TTITLE7=Mr Johnson and Mr Dunn
TTITLE8=Peach Tree Man
TTITLE9=Saturday Night
TTITLE10=Your Friends
TTITLE11=It'll Be Me
TTITLE12=At The Cross
TTITLE13=Crisco Kid
EXTD=
EXTT0=
EXTT1=
EXTT2=
EXTT3=
EXTT4=
EXTT5=
EXTT6=
EXTT7=
EXTT8=
EXTT9=
EXTT10=
EXTT11=
EXTT12=
EXTT13=
PLAYORDER=
